<svg width="1440" height="512" viewBox="0 0 1440 512" fill="none" xmlns="http://www.w3.org/2000/svg">
<mask id="mask0_1615_622" style="mask-type:alpha" maskUnits="userSpaceOnUse" x="0" y="0" width="1440" height="512">
<rect width="1440" height="512" fill="white"/>
</mask>
<g mask="url(#mask0_1615_622)">
<path d="M168.872 30.7055C174.054 34.7378 178.391 39.7512 181.636 45.4597C184.88 51.1681 186.969 57.4597 187.782 63.9753C188.595 70.4908 188.116 77.1027 186.374 83.4335C184.632 89.7642 181.66 95.6898 177.628 100.872C173.595 106.054 168.582 110.391 162.874 113.636C157.165 116.88 150.873 118.969 144.358 119.782C137.842 120.595 131.23 120.117 124.9 118.375C118.569 116.632 112.643 113.66 107.461 109.628L124.32 87.9611C126.657 89.7794 129.329 91.1196 132.184 91.9052C135.039 92.6909 138.02 92.9065 140.958 92.5399C143.896 92.1732 146.734 91.2315 149.308 89.7684C151.882 88.3053 154.143 86.3495 155.961 84.0127C157.779 81.6759 159.119 79.0039 159.905 76.1492C160.691 73.2944 160.906 70.3129 160.54 67.3748C160.173 64.4368 159.231 61.5997 157.768 59.0255C156.305 56.4514 154.349 54.1907 152.012 52.3724L168.872 30.7055Z" fill="#36B2F8"/>
<path d="M1265.74 96.7821C1263.12 99.3953 1260.01 101.467 1256.59 102.879C1253.17 104.291 1249.51 105.016 1245.81 105.012C1242.11 105.008 1238.45 104.276 1235.03 102.856C1231.62 101.437 1228.51 99.3585 1225.9 96.7398C1223.29 94.121 1221.21 91.0132 1219.8 87.5938C1218.39 84.1743 1217.66 80.5103 1217.67 76.8107C1217.67 73.1112 1218.41 69.4486 1219.82 66.0322C1221.24 62.6158 1223.32 59.5123 1225.94 56.8992L1236.31 67.2882C1235.05 68.54 1234.06 70.0266 1233.38 71.6632C1232.7 73.2997 1232.35 75.0541 1232.35 76.8263C1232.34 78.5985 1232.69 80.3536 1233.37 81.9916C1234.04 83.6296 1235.04 85.1183 1236.29 86.3728C1237.54 87.6272 1239.03 88.6228 1240.66 89.3027C1242.3 89.9826 1244.05 90.3335 1245.83 90.3354C1247.6 90.3373 1249.35 89.9901 1250.99 89.3137C1252.63 88.6372 1254.12 87.6448 1255.37 86.393L1265.74 96.7821Z" fill="#36B2F8"/>
<path d="M602.486 442.159C600.655 445.609 598.163 448.664 595.151 451.151C592.139 453.638 588.666 455.507 584.932 456.651C581.198 457.796 577.274 458.194 573.386 457.823C569.498 457.451 565.721 456.317 562.271 454.486C558.821 452.655 555.766 450.162 553.279 447.15C550.792 444.138 548.923 440.666 547.779 436.932C546.634 433.198 546.236 429.274 546.608 425.386C546.979 421.498 548.113 417.721 549.944 414.271L564.083 421.776C563.238 423.369 562.714 425.113 562.543 426.909C562.371 428.704 562.555 430.516 563.084 432.24C563.612 433.965 564.475 435.568 565.624 436.959C566.772 438.35 568.183 439.501 569.776 440.347C571.369 441.192 573.113 441.716 574.909 441.887C576.704 442.059 578.516 441.875 580.24 441.347C581.965 440.818 583.568 439.955 584.959 438.807C586.35 437.658 587.501 436.247 588.347 434.654L602.486 442.159Z" fill="#36B2F8"/>
<circle cx="598.5" cy="103.5" r="19.5" fill="#F86338"/>
<circle cx="1223" cy="396" r="9" fill="#F86338"/>
<circle cx="890" cy="453" r="5" fill="#F86338"/>
<circle cx="123.5" cy="468.5" r="4.5" fill="#F86338"/>
</g>
</svg>
